<svg xmlns="http://www.w3.org/2000/svg" xmlns:xlink="http://www.w3.org/1999/xlink" version="1.1" x="0px" y="0px" viewBox="0 0 256 256" enable-background="new 0 0 256 256" xml:space="preserve">
<metadata> Svg Vector Icons : http://www.onlinewebfonts.com/icon </metadata>
<g><g><g><path fill="#071400" d="M119.3,2.6c-13,1.5-25.3,6.9-33.8,14.8c-10.9,10.1-15,22.2-14.4,41.5c0.2,4.6,0.5,9.9,0.8,11.8c0.3,1.9,0.6,4.3,0.8,5.3c0.2,1.7,0.1,1.9-0.8,1.9c-1.8,0-4.2,1.8-5.4,4c-1,1.8-1.1,2.8-1.1,7.3c0,4.2,0.3,5.9,1.3,9.2c1.4,4.2,4.1,8.9,6.7,11.2c0.8,0.8,1.5,1.7,1.5,1.9c0,0.8,7.1,14.7,9.4,18.3c5.8,9.3,13.6,18,20.1,22.4c11.6,7.8,26,9.5,38.9,4.5c12.8-5,24.3-17.6,34.3-37.6c2.5-4.9,4.9-9.2,6-10.3c4.5-4.9,7.1-11.8,7.2-19.3c0-4.1-0.1-5.3-1-7.2c-1.2-2.6-3-3.9-5.1-4c-1.4,0-1.5-0.1-1.2-1.8c1.8-10.8,2.2-26.4,0.8-33.7c-1.9-10.4-6.2-18.4-13.5-25.3C158.4,5.9,139,0.3,119.3,2.6z M108.4,42.7c15.7,14.1,33.7,20.6,61.1,22.2l5.9,0.3v1.6c0,2.5-1.4,11.8-2.7,18.6c-0.7,3.3-1.2,6.2-1.2,6.5c0,0.2,0.7-1,1.5-2.9c2.6-6.2,5.2-8.6,7.5-7c4.9,3.2,3.1,15.5-3.4,22.4c-1.5,1.6-2.9,4.1-4.6,7.9c-6.2,13.7-11.5,22.5-17.9,28.8c-3.6,3.6-5.3,4.9-8.7,6.5c-6.5,3.2-9.4,3.8-18,3.8c-8.6,0-11.7-0.7-17.7-3.8c-9.6-5-17.6-15.8-26.6-35.8c-1.5-3.3-3.1-6-4.4-7.4c-6.7-7.1-8.4-20.2-3-22.7c2.2-1,4.2,1,7.3,7.7c0.8,1.6,1.3,2.4,1.1,1.7c-2.7-13.5-3.7-21.1-3.7-27.2c0-4.7,0.1-5.6,1.3-7.9c3.2-6.2,8.4-12.1,13.3-14.7c1.9-1.1,6.3-2.6,8-2.8C103.6,38.5,105.9,40.4,108.4,42.7z"/><path fill="#071400" d="M86.5,168.3c-1.1,0.4-7.3,2.2-13.8,4.1c-17.7,5.2-26.6,8.1-32.5,10.5c-8.9,3.7-16.6,8.6-20.4,12.9c-2,2.3-7,12.7-8.1,16.6c-1.1,4.3-1.9,14.4-1.7,22.5c0.1,6.4,0.3,7.3,1.4,9.8c1.6,3.5,4.3,6.1,7.8,7.8l2.8,1.3h106.1h106.1l2.8-1.3c3.5-1.6,6.2-4.3,7.8-7.8c1.3-2.8,1.3-2.9,1.2-14.1c0-15.3-1-19.8-6.6-30.3c-2.3-4.2-3.5-5.6-7.3-8.6c-8.6-6.6-17.7-10.4-42.3-17.6c-7.4-2.2-15.5-4.6-17.9-5.4l-4.4-1.4l0.3,1.2c0.5,2,0.4,13.8-0.2,17c-2.5,13.9-18.5,37-33.5,48.4c-6.3,4.8-5.5,4.7-11.4,0.3c-11.3-8.5-22.2-22-29.4-36.3c-4.3-8.6-5.7-15.9-5-25.5c0.2-2.7,0.3-5,0.3-5C88.5,167.6,87.6,167.9,86.5,168.3z"/><path fill="#071400" d="M117.5,169.7c-1.4,1.2-3.1,3-3.9,3.9l-1.3,1.8l1.7,2.7c1.9,2.9,4.5,5.6,7.4,8l1.9,1.5l-5.5,13.6l-5.5,13.6l1.6,2.3c2.4,3.5,5.6,6.8,10.1,10.3l4,3.2l3.4-2.8c4.1-3.3,7.9-7.1,10.4-10.4l1.9-2.5l-5.5-13.6l-5.5-13.7l3.9-3.8c2.1-2.1,4.6-4.8,5.5-6.2l1.6-2.3l-1.5-2c-0.8-1.1-2.6-2.8-3.8-3.9l-2.3-2h-8.2H120L117.5,169.7z"/></g></g></g>
</svg>