<svg id="Layer_1" data-name="Layer 1" xmlns="http://www.w3.org/2000/svg" viewBox="0 0 554.95 554.94"><defs><style>.cls-1{fill:aqua;}</style></defs><title>rotterdamp MAIN LOGO</title><g id="Laag_2" data-name="Laag 2"><g id="Layer_1-2" data-name="Layer 1"><path class="cls-1" d="M276.79,554.94a1.62,1.62,0,0,1-1.14-.48L-.22,278.6a1.61,1.61,0,0,1,0-2.28L275.63.45a1.68,1.68,0,0,1,2.29,0L553.79,276.3a1.62,1.62,0,0,1,0,2.29L277.93,554.47A1.61,1.61,0,0,1,276.79,554.94ZM3.23,277.46,276.79,551,550.35,277.46,276.79,3.9Z" transform="translate(0.69 0)"/><path class="cls-1" d="M309,433.37c-5.78-1.86-11.44-.29-14.43.9-1.46-12.85-11-16.65-15.25-17.71a20.59,20.59,0,0,0-21.88,8.74c-2.75-2.39-9.15-6.47-20.75-6.1-17.79.57-26.84,17.16-27.81,21.87a1.63,1.63,0,0,0,2.43,1.73,19.13,19.13,0,0,1,7.63-2.49,17.12,17.12,0,0,1,15.17,7.15c1.63,2.28,1.72,4.91,1.83,8,.12,3.32.26,7.07,2.66,10.71a19.05,19.05,0,0,0,12.16,8.19c-.36,8.5,1.84,15.36,6.53,20.41,4.95,5.35,12.52,8.29,21.32,8.29,14.16,0,23.86-13.39,24-25.89a22.12,22.12,0,0,0-.33-4c5.9-.18,12.58-3.82,16.62-9.28a17.81,17.81,0,0,0,2.08-18.7C318.16,439,314.12,435,309,433.37Zm7.29,28.6c-3.61,4.87-9.82,8.17-14.87,8-2.09-5.72-7.09-10.3-16.49-10.61-8.19-.24-13.79,3.84-15,10.86-1.14,6.39,1.86,13.27,6.33,14.7a1.63,1.63,0,0,0,1-3.1h0c-2.57-.83-5-5.94-4.11-11,.54-3.15,2.77-8.39,11.68-8.15,7.23.2,12.1,3.6,13.82,9.32h0a16.91,16.91,0,0,1,.69,5.2c-.15,10.72-8.72,22.67-20.78,22.67-7.88,0-14.6-2.57-18.93-7.24s-6.21-11.22-5.58-19.44a1.62,1.62,0,0,0-1.49-1.75h0a15.85,15.85,0,0,1-11.26-7c-1.89-2.87-2-5.86-2.11-9s-.24-6.62-2.43-9.72a20.33,20.33,0,0,0-17.93-8.62,17.93,17.93,0,0,0-5.22,1.14c3-5.57,10.41-15.3,23.2-15.71,11.51-.38,17.16,3.94,19,5.71h0c-4.47,9.64.63,19,4.9,22.7a1.62,1.62,0,1,0,2.11-2.47h0c-3.54-3.05-7.78-10.85-4.06-18.84.13-.28.28-.54.41-.8v-.11a17.35,17.35,0,0,1,19.39-9c4.68,1.14,12.58,4.94,13,17a1.63,1.63,0,0,0,1.66,1.59,1.56,1.56,0,0,0,.76-.22c.07,0,7.18-3.93,14.12-1.67,4.21,1.38,7.57,4.76,10,10a14.77,14.77,0,0,1-1.76,15.4Z" transform="translate(0.69 0)"/><path class="cls-1" d="M356.57,423.13c-1.71-.77-14.6-6.36-26.07-6.36a27,27,0,0,0-5.38.48,11.33,11.33,0,0,0-9.3,12.58c.48,5,4.22,10.44,11.29,10.44a13.83,13.83,0,0,0,2.65-.25c3.64-.65,6.05-3.43,8.59-6.26,3.43-3.82,6.86-7.77,13.85-7.77a20.79,20.79,0,0,1,3.61.32h.26a1.63,1.63,0,0,0,.48-3.2Zm-20.67,8.46c-2.28,2.55-4.19,4.76-6.73,5.22a12.08,12.08,0,0,1-2.07.19,7.89,7.89,0,0,1-8-7.49,8.08,8.08,0,0,1,6.68-9.06,24.5,24.5,0,0,1,4.76-.42,58.66,58.66,0,0,1,17.15,3.21c-5.6,1.36-9,5.17-11.77,8.35Z" transform="translate(0.69 0)"/><path class="cls-1" d="M192.82,343.84a21.28,21.28,0,1,1,21.28-21.28A21.27,21.27,0,0,1,192.82,343.84Zm0-39.29a18,18,0,1,0,18,18A18,18,0,0,0,192.82,304.55Z" transform="translate(0.69 0)"/><path class="cls-1" d="M267.77,300.6h-30a1.63,1.63,0,0,0,0,3.26h13.36v38.76a1.63,1.63,0,0,0,3.26,0h0V303.86h13.39a1.63,1.63,0,0,0,0-3.26Z" transform="translate(0.69 0)"/><path class="cls-1" d="M323.37,300.6h-30a1.63,1.63,0,1,0,0,3.26h13.39v38.76a1.63,1.63,0,0,0,3.26,0h0V303.86h13.4a1.63,1.63,0,0,0,0-3.26Z" transform="translate(0.69 0)"/><path class="cls-1" d="M175.89,401h-6.66a1.64,1.64,0,0,1-1.64-1.62V359.21a1.63,1.63,0,0,1,1.62-1.63h6.67a21.74,21.74,0,1,1,3,43.37,21.31,21.31,0,0,1-3,0Zm-5-3.26h5a18.43,18.43,0,0,0,.92-36.85h-5.95Z" transform="translate(0.69 0)"/><path class="cls-1" d="M142.7,341.67,131.26,324a11.73,11.73,0,0,0-.73-23.44H119.09a1.62,1.62,0,0,0-1.62,1.62h0v40.45a1.63,1.63,0,0,0,3.26,0v-18.6h6.69L140,343.44a1.63,1.63,0,0,0,2.73-1.77h0Zm-22-37.81h9.82a8.48,8.48,0,1,1,0,17h-9.82Z" transform="translate(0.69 0)"/><path class="cls-1" d="M363.58,401.07a1.62,1.62,0,0,1-1.62-1.62h0V359.21a1.63,1.63,0,0,1,1.62-1.63H375a11.74,11.74,0,0,1,0,23.48h-9.81v18.39a1.62,1.62,0,0,1-1.63,1.62Zm1.63-23.27H375a8.49,8.49,0,0,0,0-17h-9.81Z" transform="translate(0.69 0)"/><path class="cls-1" d="M436.2,341.65l-11.43-17.59a11.73,11.73,0,1,0-.24-23.46H413.09a1.63,1.63,0,0,0-1.63,1.62h0v40.32a1.63,1.63,0,0,0,3.26,0h0V324.07h6.17l12.64,19.37a1.64,1.64,0,0,0,1.36.73,1.56,1.56,0,0,0,.89-.27A1.61,1.61,0,0,0,436.2,341.65Zm-21.52-37.74h9.81a8.48,8.48,0,1,1,0,17h-9.83Z" transform="translate(0.69 0)"/><path class="cls-1" d="M377.86,324.08a1.63,1.63,0,1,0,0-3.25h-20.4v-17h20.46a1.63,1.63,0,1,0,0-3.26H355.78a1.75,1.75,0,0,0-1.62,1.76v40.25a1.63,1.63,0,0,0,1.62,1.63h22.09a1.63,1.63,0,0,0,0-3.26H357.46v-16.9Z" transform="translate(0.69 0)"/><path class="cls-1" d="M285.24,401.38h-.19a1.64,1.64,0,0,1-1.43-1.81l4.84-41.07a1.62,1.62,0,0,1,3.07-.54L306,387.07l15.57-29.16a1.61,1.61,0,0,1,2.19-.68,1.6,1.6,0,0,1,.86,1.29l3.7,41.08a1.63,1.63,0,0,1-3.25.29l-3.21-35.64L307.36,391.4a1.57,1.57,0,0,1-1.46.85,1.61,1.61,0,0,1-1.43-.9l-13.42-27-4.19,35.63A1.63,1.63,0,0,1,285.24,401.38Z" transform="translate(0.69 0)"/><path class="cls-1" d="M256.81,399.15l-16.28-41.47a1.62,1.62,0,0,0-1.51-1h0a1.63,1.63,0,0,0-1.51,1l-11.27,28.12h0l-5.35,13.37a1.63,1.63,0,1,0,3,1.21L228.84,388H249l4.84,12.3a1.63,1.63,0,0,0,1.52,1,1.77,1.77,0,0,0,.6-.11A1.65,1.65,0,0,0,256.81,399.15Zm-26.66-14.37L239,362.71l8.66,22.07Z" transform="translate(0.69 0)"/><path class="cls-1" d="M270.27,91.77c4.24-8.84,6.43-26.6,4.35-35.21C273,50,272.26,33,272.25,32.78a1.63,1.63,0,0,0-3.24-.14c-.17,1.24-.34,2.56-.51,3.92-2.06,16-5.15,40.09-23.31,50l-2.58,1.36c-7.28,3.81-20.86,10.89-29.86,21.74a60.89,60.89,0,0,0-11.56,23.88v.17c-.22.94-.4,1.76-.52,2.41-6.49-1.32-10.86.43-13.46,2.21a16.56,16.56,0,0,0-6.87,12.18c-.07.71-.12,1.43-.19,2.15-.38,4.51-.77,9.16-3,11.66-3.88,4.26-5.61,4.76-14.61,6-9.8,1.33-17.16,8.17-18.66,17.43a20.08,20.08,0,0,0,1.31,11.2c-3.62-.27-9.82,0-14.87,4.32-5.72,4.88-12.68,16-5.22,28.26-5.21.36-15.3,2.55-19.63,13.72-2.88,7.4-8.08,9.79-12,10.49a19.64,19.64,0,0,1-17.4-6.21,1.62,1.62,0,0,0-2.76,1.59c2.55,8,12.14,23.9,30.16,27.28a40.09,40.09,0,0,0,7.49.71,38.82,38.82,0,0,0,24.59-8.81c.15.23.29.47.46.7a18.54,18.54,0,0,0,13.07,7.85,28.36,28.36,0,0,0,4,.29c7.67,0,12.33-3.61,17.22-7.4,1.43-1.14,2.91-2.28,4.51-3.35,8.68-6,16.48-5.26,23-3.77A30.59,30.59,0,0,0,213.67,280a37.51,37.51,0,0,0,15.3,3.29,34,34,0,0,0,13.64-2.79c14.21-6.28,22.35-18.64,22.35-33.91,0-13.65,1.57-69.54,6.53-93.73a1.64,1.64,0,0,0-1.28-1.93l-.15,0c-.21,0-21.19-2.43-22.07-18.91-.28-5.1.47-8.55,2.21-10.29a6.17,6.17,0,0,1,5-1.42l1.07.07c4.76.33,11.28.8,16.09-6.47a1.64,1.64,0,0,0,0-1.78C272.28,112,265.64,101.44,270.27,91.77Zm-13.81,25.37-1.14-.08c-3.24-.2-5.72.57-7.48,2.36-2.46,2.43-3.49,6.61-3.16,12.76.86,16.12,17.69,20.59,23.23,21.74-4.71,25-6.28,77.12-6.28,92.71,0,6.59-2,22.78-20.4,30.89a32.78,32.78,0,0,1-26.31-.48c-7.39-3.33-12.84-9.05-14.95-15.69-7.43-23.41,5.18-37,18.25-41.42,7.8-2.68,16.09-.94,21.12,4.43,3.7,4,4.77,9,2.87,13.54-2.94,7-7.6,9.24-11,9.88a15.17,15.17,0,0,1-13.16-4.06,1.62,1.62,0,0,0-2.28,2.28,18.3,18.3,0,0,0,16.09,5c5.9-1.14,10.66-5.32,13.4-11.83,2.41-5.71,1.14-12.09-3.51-17-5.9-6.32-15.53-8.4-24.55-5.3-15.3,5.24-27.45,20.86-20.71,44.11-6.77-1.32-14.72-1.41-23.56,4.67-1.68,1.15-3.19,2.29-4.65,3.44-5.57,4.32-10,7.73-18.76,6.45A15.44,15.44,0,0,1,138.64,269a21.72,21.72,0,0,1-3.43-14.79,1.63,1.63,0,1,0-3.19-.66h0A24.76,24.76,0,0,0,134,267.31a36,36,0,0,1-29.88,7.87c-12.78-2.41-20.84-11.93-24.9-19a22.34,22.34,0,0,0,14.94,2.73c6.61-1.2,11.73-5.65,14.4-12.51,5-12.91,18.93-11.69,19.52-11.63a1.63,1.63,0,0,0,1.45-2.62c-8.75-11.35-2.29-21.93,3-26.39,5.54-4.75,13.25-3.53,14.69-3.26a20.53,20.53,0,0,0,7.73,6.59,18,18,0,0,0,15.42.78,14.88,14.88,0,0,0,8.35-8.93c1.77-6.05-2-11.21-6.17-13.42A10.59,10.59,0,0,0,158.86,190a1.63,1.63,0,0,0,2.52,2.07,7.39,7.39,0,0,1,9.57-1.68c3.08,1.62,5.82,5.34,4.58,9.64a11.52,11.52,0,0,1-6.53,6.86c-2.73,1.15-7.14,2-12.67-.71a16.64,16.64,0,0,1-9.26-17.86c1.29-7.83,7.53-13.61,15.88-14.75,9.56-1.29,12-2,16.57-7,3-3.31,3.43-8.53,3.89-13.57.06-.71.11-1.42.18-2.12A13.29,13.29,0,0,1,189,141c2.93-2,6.74-2.58,11.1-1.66-1.44,11.81,2.08,21.2,7.24,25.16A17.16,17.16,0,0,0,217.46,168a14.71,14.71,0,0,0,2.2-.16c4.57-.68,8.69-3.43,12.11-8.15,5.35-7.39.53-16.36-4.58-20.37a1.62,1.62,0,1,0-2,2.56c3.23,2.51,8.43,9.71,4,15.89-2.89,4-6.23,6.29-10,6.86a13.59,13.59,0,0,1-9.86-2.61c-4.63-3.53-7.72-13-5.58-24.76a4.64,4.64,0,0,1,.17-.86c.07-.32.16-.73.24-1.14s.23-1,.38-1.53.35-1.33.56-2v-.06a56.49,56.49,0,0,1,10.14-19.85c8.58-10.38,21.74-17.26,28.86-21,1-.53,1.89-1,2.63-1.38,15.52-8.43,20.79-25.91,23.37-41.07a74.9,74.9,0,0,0,1.35,9c1.91,7.89-.21,24.87-4.12,33-4.57,9.58,0,19.45,1.71,22.58C265.36,117.77,260.85,117.45,256.46,117.14Z" transform="translate(0.69 0)"/><path class="cls-1" d="M478.39,251.93a1.63,1.63,0,0,0-2,.15,16,16,0,0,1-22.64-.37c-.28-.29-.55-.59-.8-.9a15.57,15.57,0,0,1-2.93-6.66c-1.15-4.17-2.44-8.9-8.78-13.21a18.55,18.55,0,0,0-12.49-3.14c4.79-11.93-1.25-20-5.52-23.86A20.16,20.16,0,0,0,408.94,199a32.15,32.15,0,0,0-1.38-9.34c-3.14-10.47-11.06-18.42-20.68-20.76-2.38-.58-4.38-.93-6.14-1.27-4.87-.89-7.56-1.37-11.57-5s-4.81-9.25-5.47-14.59c-.24-1.9-.46-3.69-.84-5.43-1.43-6.74-7-12.88-14.12-15.64a23.53,23.53,0,0,0-19.22,1c1.51-4.57,3-12,.56-19.66-3.54-11.21-14-18.68-21.56-23.31-16.08-9.86-23.89-26.95-23.89-52.23A1.62,1.62,0,0,0,283,31.22h0a1.63,1.63,0,0,0-1.62,1.59,136.33,136.33,0,0,1-1.52,17.35c-2.42,12.27-1.55,26.41.08,35.55a41.2,41.2,0,0,0,3.17,9.85c2.18,5.07,3.77,8.74-.28,19-1.65,4.16-.53,6.5.29,7.53a5.1,5.1,0,0,0,4.88,1.78,10.93,10.93,0,0,0,3.31-1.23,11.37,11.37,0,0,1,2.56-1c4.17-.94,6.14.89,7.06,2.59a10.07,10.07,0,0,1,.76,8c-3,9.89-18.3,18.09-18.46,18.17a1.63,1.63,0,0,0-.86,1.28c-3.94,40.13-2.18,75.49.77,95.22,3.43,22.59,13.43,34.16,31.6,36.4a30.39,30.39,0,0,0,3.44.2,36.5,36.5,0,0,0,24.5-10.29c2.2,2.7,7.51,7.53,17.26,7.53,12.52,0,17.54-9.07,19.53-15.42a22,22,0,0,0,21.06,13c6.23-.16,15.76-3.95,19.57-11.81,3.72,3.92,12.84,12.06,24.24,12.06H445c24.82-.66,31.23-17.57,33.64-23.94l.31-.8A1.63,1.63,0,0,0,478.39,251.93ZM445,275.34c-11.72.34-21.27-9.66-23.54-12.25,1.95-7.58.19-12.17-1.68-14.71a12.22,12.22,0,0,0-8.9-4.85,12.83,12.83,0,0,0-9.15,3.56,12.12,12.12,0,0,0-3.56,8.89,1.63,1.63,0,0,0,3.26,0,9,9,0,0,1,2.58-6.57,9.47,9.47,0,0,1,6.87-2.62,8.88,8.88,0,0,1,6.33,3.54c2.2,3,2.52,7.24.94,12.73-2.29,8-11.83,11.91-17.56,12.06-10,.21-17.34-5.82-19.75-16.25a1.62,1.62,0,0,0-3.21.27c0,.75-1.4,18.4-17.55,18.4-9.06,0-13.58-4.75-15.08-6.75,3.56-4.65,6.26-11.44,5-17.73a14.52,14.52,0,0,0-8.64-10.51c-6-2.81-9.15-1.58-12.5-.27a19.06,19.06,0,0,1-8.74,1.67,13.47,13.47,0,0,1-11.05-6.15,1.63,1.63,0,0,0-2.85,1.58A16.7,16.7,0,0,0,320,247.19,22.17,22.17,0,0,0,330,245.31c3.13-1.23,5.18-2,9.94.19a11.26,11.26,0,0,1,6.87,8.18c1.14,5.95-2.12,12.79-5.72,16.63-5.35,5.78-16,11-25.93,9.76-16.73-2.06-25.6-12.45-28.78-33.65-2.91-19.38-4.65-54.08-.84-93.57,3.35-1.9,16.26-9.74,19.28-19.66a13.38,13.38,0,0,0-1-10.56c-.95-1.77-3.89-5.72-10.63-4.23a14.91,14.91,0,0,0-3.3,1.3,8.39,8.39,0,0,1-2.29.92,2,2,0,0,1-1.88-.56c-.63-.8-.56-2.43.2-4.33,4.57-11.49,2.54-16.11.23-21.46a38.31,38.31,0,0,1-3-9.16c-1.55-8.73-2.39-22.17-.17-33.9,3.16,16.69,11,28.75,23.86,36.6C314,92.18,323.82,99.16,327,109.33c3.43,11-2.21,21.73-2.29,21.85a1.62,1.62,0,0,0,2.39,2.08c6.48-4.69,13.73-5.84,20.46-3.25,6.15,2.37,10.91,7.57,12.11,13.27.34,1.6.56,3.33.79,5.16.7,5.72,1.51,12.08,6.52,16.59,4.71,4.25,8.25,4.9,13.17,5.79,1.72.32,3.67.68,6,1.23,8.49,2,15.51,9.15,18.3,18.53a26.62,26.62,0,0,1-6,26.42,29.15,29.15,0,0,1-21.51,9.59h0a25.49,25.49,0,0,1-18.76-7.89c-2.54-2.77-6.28-12.58,0-19.56,4-4.4,10.41-6.86,14.94-3,2.29,1.93,3.2,4.06,2.7,6.3a6.88,6.88,0,0,1-4.05,4.74,1.63,1.63,0,1,0,.81,3.15,10,10,0,0,0,6.42-7.16c.78-3.43-.56-6.8-3.78-9.51-6.1-5.15-14.4-2.21-19.44,3.35-7.78,8.58-3.2,20.45,0,23.94a28.74,28.74,0,0,0,21.16,9h0a32.42,32.42,0,0,0,23.86-10.62,29.75,29.75,0,0,0,7.94-17A17.28,17.28,0,0,1,421,206.36c4.79,4.35,9.27,11.86,3.43,22.88a1.61,1.61,0,0,0,.68,2.19,1.63,1.63,0,0,0,1.3.09,15.27,15.27,0,0,1,12.94,2.07c5.35,3.64,6.38,7.39,7.47,11.39a19.32,19.32,0,0,0,3.58,7.89,19.59,19.59,0,0,0,13.73,6.92,18.9,18.9,0,0,0,9.79-2.07C470.57,264.88,463.4,274.85,445,275.34Z" transform="translate(0.69 0)"/></g></g></svg>